<svg width="335" height="485" fill="none" xmlns="http://www.w3.org/2000/svg"><rect width="335" height="485" rx="8" fill="#fff"/><path d="M208.88 224.282a41.724 41.724 0 0 0-5.88-2.503v49.354c-4.56-1.682-9.24-2.543-14-2.543-7.6 0-15.12 2.215-22 6.482v-49.641c-6.48-3.816-13.96-6.072-22-6.072-7.16 0-13.92 1.805-19.88 4.923-1.32.656-2.12 2.092-2.12 3.61v49.559c0 2.38 1.88 4.062 4 4.062.64 0 1.28-.164 1.92-.492 4.84-2.585 10.28-4.226 16.08-4.226 8.28 0 15.92 3.364 22 8.205 6.08-4.841 13.72-8.205 22-8.205 5.8 0 11.24 1.641 16.08 4.267.64.328 1.28.492 1.92.492 2.08 0 4-1.682 4-4.062v-49.6c0-1.518-.8-2.954-2.12-3.61ZM159 271.133c-4.56-1.682-9.24-2.543-14-2.543s-9.44.861-14 2.543v-40.656a34.844 34.844 0 0 1 14-2.913c4.8 0 9.56 1.026 14 2.954v40.615ZM195 205l-20 20.513v38.974l20-18.461V205Z" fill="#4F2EE8"/></svg>