<svg width="218" height="316" fill="none" xmlns="http://www.w3.org/2000/svg"><rect width="218" height="316" rx="8" fill="#fff"/><path d="M137.555 146.015a28.704 28.704 0 0 0-4.01-1.689v33.314c-3.109-1.135-6.3-1.717-9.545-1.717-5.182 0-10.309 1.495-15 4.375v-33.507c-4.418-2.576-9.518-4.099-15-4.099-4.882 0-9.49 1.219-13.555 3.323-.9.443-1.445 1.413-1.445 2.437v33.453a2.714 2.714 0 0 0 2.727 2.741c.437 0 .873-.111 1.31-.332 3.3-1.745 7.008-2.852 10.963-2.852 5.645 0 10.855 2.27 15 5.538 4.145-3.268 9.355-5.538 15-5.538 3.955 0 7.664 1.107 10.964 2.88.436.221.872.332 1.309.332a2.731 2.731 0 0 0 2.727-2.742v-33.48c0-1.024-.545-1.994-1.445-2.437Zm-34.01 31.625c-3.109-1.135-6.3-1.717-9.545-1.717-3.246 0-6.436.582-9.546 1.717v-27.443A23.953 23.953 0 0 1 94 148.231c3.273 0 6.518.692 9.545 1.994v27.415ZM128.091 133l-13.636 13.846v26.308l13.636-12.462V133Z" fill="#4F2EE8"/></svg>