<svg width="180" height="256" fill="none" xmlns="http://www.w3.org/2000/svg"><rect width="180" height="256" rx="8" fill="#fff"/><path d="M110.94 119.641c-.94-.492-1.92-.903-2.94-1.251v24.677a20.118 20.118 0 0 0-7-1.272c-3.8 0-7.56 1.108-11 3.241v-24.821c-3.24-1.907-6.98-3.036-11-3.036-3.58 0-6.96.903-9.94 2.462-.66.328-1.06 1.046-1.06 1.805v24.78a2 2 0 0 0 2 2.03c.32 0 .64-.082.96-.246 2.42-1.292 5.14-2.113 8.04-2.113 4.14 0 7.96 1.682 11 4.103 3.04-2.421 6.86-4.103 11-4.103 2.9 0 5.62.821 8.04 2.134.32.164.64.246.96.246 1.04 0 2-.841 2-2.031v-24.8c0-.759-.4-1.477-1.06-1.805ZM86 143.067a20.118 20.118 0 0 0-7-1.272c-2.38 0-4.72.431-7 1.272v-20.329a17.422 17.422 0 0 1 7-1.456c2.4 0 4.78.513 7 1.477v20.308ZM104 110l-10 10.256v19.488l10-9.231V110Z" fill="#4F2EE8"/></svg>