<svg aria-hidden="true" style="width:0;height:0;position:absolute;overflow:hidden" xmlns="http://www.w3.org/2000/svg"><defs><symbol id="icon-scroll" viewBox="0 0 55 32"><path fill="#fff" style="fill:var(--color1,#fff)" d="M1.091 25.309 25.527.8c.291-.291.606-.496.945-.617.339-.122.703-.183 1.091-.183s.752.061 1.091.183c.339.12.655.326.946.617l24.509 24.509c.679.679 1.018 1.527 1.018 2.545s-.364 1.891-1.091 2.618c-.727.727-1.576 1.091-2.545 1.091s-1.818-.364-2.545-1.091L27.564 9.09 6.182 30.472c-.679.679-1.515 1.018-2.508 1.018-.995 0-1.856-.364-2.583-1.091S0 28.823 0 27.854c0-.97.364-1.818 1.091-2.545z"/></symbol><symbol id="icon-close" viewBox="0 0 32 32"><path stroke-linecap="round" stroke-linejoin="round" stroke-width="5.333" d="M28.444 3.556 3.555 28.445m.001-24.889 24.889 24.889"/></symbol><symbol id="icon-menu-burger" viewBox="0 0 32 32"><path d="M0 2h32v4H0zm0 6h20v4H0zm0 12h20v4H0zm0-6h32v4H0zm0 12h32v4H0z"/></symbol><symbol id="icon-delete" viewBox="0 0 32 32"><path fill="none" stroke="#fff" stroke-linecap="round" stroke-linejoin="round" stroke-width="3.2" d="M11.6 2.8h8.8M2.8 7.2h26.4m-2.933 0-1.029 15.429c-.155 2.314-.232 3.472-.731 4.349a4.433 4.433 0 0 1-1.878 1.771l-.026.012c-.91.44-2.069.44-4.389.44h-4.429c-2.32 0-3.478 0-4.389-.44A4.437 4.437 0 0 1 7.503 27l-.011-.021c-.499-.877-.576-2.035-.731-4.349L5.732 7.201m7.335 6.599v7.333m5.866-7.333v7.333" style="stroke:var(--color1,#fff)"/></symbol><symbol id="icon-user" viewBox="0 0 32 32"><path fill="#f6f6f6" d="M32 16c0 8.837-7.163 16-16 16S0 24.837 0 16 7.163 0 16 0s16 7.163 16 16z" style="fill:var(--color2,#f6f6f6)"/><path fill="#4f2ee8" d="M10.523 22.847a5.478 5.478 0 0 1 10.954-.005v.005H10.523zM16 16.685h-.001a4.107 4.107 0 0 1-4.107-4.107v-.002a4.107 4.107 0 0 1 4.107-4.107h.002a4.107 4.107 0 0 1 4.107 4.107v.002a4.107 4.107 0 0 1-4.107 4.107H16z" style="fill:var(--color3,#4f2ee8)"/></symbol><symbol id="icon-bag" viewBox="0 0 32 32"><path d="M26.37 8.592h-4.444V7.111a5.925 5.925 0 0 0-11.85 0v1.481H5.63a1.48 1.48 0 0 0-1.481 1.481V26.37a4.444 4.444 0 0 0 4.444 4.444h14.816a4.444 4.444 0 0 0 4.444-4.444V10.073a1.48 1.48 0 0 0-1.481-1.481h-.002zM13.036 7.111a2.964 2.964 0 1 1 5.928 0v1.481h-5.927V7.111zM24.889 26.37v.002a1.48 1.48 0 0 1-1.481 1.481H8.592a1.48 1.48 0 0 1-1.481-1.481V11.556h2.964v1.481a1.48 1.48 0 1 0 2.962 0v-1.481h5.927v1.481a1.48 1.48 0 1 0 2.962 0v-1.481h2.964V26.37z"/></symbol><symbol id="icon-email" viewBox="0 0 32 32"><path stroke-linecap="round" stroke-linejoin="round" stroke-width="2.462" d="M29.642 24.615 20.104 16m-8.206 0L2.36 24.615M1.641 8.821l11.724 8.207c.95.665 1.424.997 1.941 1.125.455.114.933.114 1.39 0 .516-.128.991-.46 1.94-1.125L30.36 8.821M8.533 27.487h14.934c2.412 0 3.618 0 4.54-.469a4.342 4.342 0 0 0 1.872-1.859l.011-.024c.468-.921.468-2.128.468-4.54v-9.189c0-2.412 0-3.618-.468-4.542a4.345 4.345 0 0 0-1.859-1.871l-.024-.011c-.922-.469-2.128-.469-4.542-.469H8.535c-2.412 0-3.618 0-4.542.469a4.345 4.345 0 0 0-1.871 1.859l-.011.024c-.47.921-.47 2.127-.47 4.54v9.189c0 2.412 0 3.618.47 4.542a4.345 4.345 0 0 0 1.859 1.871l.024.011c.921.469 2.127.469 4.54.469z"/></symbol><symbol id="icon-password" viewBox="0 0 32 32"><path stroke-linecap="round" stroke-linejoin="round" stroke-width="2.667" d="M23.777 14.444V9.777a7.777 7.777 0 0 0-15.554 0v4.667M9.467 30h13.067c2.613 0 3.92 0 4.919-.508a4.707 4.707 0 0 0 2.028-2.014l.012-.026c.508-.999.508-2.305.508-4.919v-.623c0-2.613 0-3.92-.508-4.919a4.707 4.707 0 0 0-2.014-2.028l-.026-.012c-.999-.507-2.305-.507-4.919-.507H9.467c-2.613 0-3.92 0-4.919.507a4.707 4.707 0 0 0-2.028 2.014l-.012.026C2 17.991 2 19.298 2 21.911v.621c0 2.613 0 3.92.508 4.919a4.707 4.707 0 0 0 2.014 2.028l.026.012c.999.508 2.305.508 4.919.508z"/></symbol></defs></svg>