<svg width="335" height="485" viewBox="0 0 335 485" fill="none" xmlns="http://www.w3.org/2000/svg">
<rect width="335" height="485" rx="8" fill="white"/>
<path d="M208.88 224.282C207 223.297 205.04 222.477 203 221.779V271.133C198.44 269.451 193.76 268.59 189 268.59C181.4 268.59 173.88 270.805 167 275.072V225.431C160.52 221.615 153.04 219.359 145 219.359C137.84 219.359 131.08 221.164 125.12 224.282C123.8 224.938 123 226.374 123 227.892V277.451C123 279.831 124.88 281.513 127 281.513C127.64 281.513 128.28 281.349 128.92 281.021C133.76 278.436 139.2 276.795 145 276.795C153.28 276.795 160.92 280.159 167 285C173.08 280.159 180.72 276.795 189 276.795C194.8 276.795 200.24 278.436 205.08 281.062C205.72 281.39 206.36 281.554 207 281.554C209.08 281.554 211 279.872 211 277.492V227.892C211 226.374 210.2 224.938 208.88 224.282ZM159 271.133C154.44 269.451 149.76 268.59 145 268.59C140.24 268.59 135.56 269.451 131 271.133V230.477C135.44 228.549 140.12 227.564 145 227.564C149.8 227.564 154.56 228.59 159 230.518V271.133ZM195 205L175 225.513V264.487L195 246.026V205Z" fill="#4F2EE8"/>
</svg>
