<svg width="218" height="316" viewBox="0 0 218 316" fill="none" xmlns="http://www.w3.org/2000/svg">
<rect width="218" height="316" rx="8" fill="white"/>
<path d="M137.555 146.015C136.273 145.351 134.936 144.797 133.545 144.326V177.64C130.436 176.505 127.245 175.923 124 175.923C118.818 175.923 113.691 177.418 109 180.298V146.791C104.582 144.215 99.4818 142.692 94 142.692C89.1182 142.692 84.5091 143.911 80.4455 146.015C79.5455 146.458 79 147.428 79 148.452V181.905C79 183.511 80.2818 184.646 81.7273 184.646C82.1636 184.646 82.6 184.535 83.0364 184.314C86.3364 182.569 90.0455 181.462 94 181.462C99.6455 181.462 104.855 183.732 109 187C113.145 183.732 118.355 181.462 124 181.462C127.955 181.462 131.664 182.569 134.964 184.342C135.4 184.563 135.836 184.674 136.273 184.674C137.691 184.674 139 183.538 139 181.932V148.452C139 147.428 138.455 146.458 137.555 146.015ZM103.545 177.64C100.436 176.505 97.2455 175.923 94 175.923C90.7545 175.923 87.5636 176.505 84.4545 177.64V150.197C87.4818 148.895 90.6727 148.231 94 148.231C97.2727 148.231 100.518 148.923 103.545 150.225V177.64ZM128.091 133L114.455 146.846V173.154L128.091 160.692V133Z" fill="#4F2EE8"/>
</svg>
