<svg width="180" height="256" viewBox="0 0 180 256" fill="none" xmlns="http://www.w3.org/2000/svg">
<rect width="180" height="256" rx="8" fill="white"/>
<path d="M110.94 119.641C110 119.149 109.02 118.738 108 118.39V143.067C105.72 142.226 103.38 141.795 101 141.795C97.2 141.795 93.44 142.903 90 145.036V120.215C86.76 118.308 83.02 117.179 79 117.179C75.42 117.179 72.04 118.082 69.06 119.641C68.4 119.969 68 120.687 68 121.446V146.226C68 147.415 68.94 148.256 70 148.256C70.32 148.256 70.64 148.174 70.96 148.01C73.38 146.718 76.1 145.897 79 145.897C83.14 145.897 86.96 147.579 90 150C93.04 147.579 96.86 145.897 101 145.897C103.9 145.897 106.62 146.718 109.04 148.031C109.36 148.195 109.68 148.277 110 148.277C111.04 148.277 112 147.436 112 146.246V121.446C112 120.687 111.6 119.969 110.94 119.641ZM86 143.067C83.72 142.226 81.38 141.795 79 141.795C76.62 141.795 74.28 142.226 72 143.067V122.738C74.22 121.774 76.56 121.282 79 121.282C81.4 121.282 83.78 121.795 86 122.759V143.067ZM104 110L94 120.256V139.744L104 130.513V110Z" fill="#4F2EE8"/>
</svg>
