<svg width="116" height="165" viewBox="0 0 116 165" fill="none" xmlns="http://www.w3.org/2000/svg">
<rect width="116" height="165" rx="8" fill="white"/>
<path d="M73.2291 77.2308C72.5455 76.8615 71.8327 76.5538 71.0909 76.2923V94.8C69.4327 94.1692 67.7309 93.8462 66 93.8462C63.2364 93.8462 60.5018 94.6769 58 96.2769V77.6615C55.6436 76.2308 52.9236 75.3846 50 75.3846C47.3964 75.3846 44.9382 76.0615 42.7709 77.2308C42.2909 77.4769 42 78.0154 42 78.5846V97.1692C42 98.0615 42.6836 98.6923 43.4545 98.6923C43.6873 98.6923 43.92 98.6308 44.1527 98.5077C45.9127 97.5385 47.8909 96.9231 50 96.9231C53.0109 96.9231 55.7891 98.1846 58 100C60.2109 98.1846 62.9891 96.9231 66 96.9231C68.1091 96.9231 70.0873 97.5385 71.8473 98.5231C72.08 98.6462 72.3127 98.7077 72.5455 98.7077C73.3018 98.7077 74 98.0769 74 97.1846V78.5846C74 78.0154 73.7091 77.4769 73.2291 77.2308ZM55.0909 94.8C53.4327 94.1692 51.7309 93.8462 50 93.8462C48.2691 93.8462 46.5673 94.1692 44.9091 94.8V79.5538C46.5236 78.8308 48.2255 78.4615 50 78.4615C51.7455 78.4615 53.4764 78.8462 55.0909 79.5692V94.8ZM68.1818 70L60.9091 77.6923V92.3077L68.1818 85.3846V70Z" fill="#4F2EE8"/>
</svg>
