<svg aria-hidden="true" style="position: absolute; width: 0; height: 0; overflow: hidden;" version="1.1"
    xmlns="http://www.w3.org/2000/svg" xmlns:xlink="http://www.w3.org/1999/xlink">
    <defs>
        <symbol id="icon-scroll" viewBox="0 0 55 32">
            <path fill="#fff" style="fill: var(--color1, #fff)"
                d="M1.091 25.309l24.436-24.509c0.291-0.291 0.606-0.496 0.945-0.617 0.339-0.122 0.703-0.183 1.091-0.183s0.752 0.061 1.091 0.183c0.339 0.12 0.655 0.326 0.946 0.617l24.509 24.509c0.679 0.679 1.018 1.527 1.018 2.545s-0.364 1.891-1.091 2.618c-0.727 0.727-1.576 1.091-2.545 1.091s-1.818-0.364-2.545-1.091l-21.382-21.382-21.382 21.382c-0.679 0.679-1.515 1.018-2.508 1.018-0.995 0-1.856-0.364-2.583-1.091s-1.091-1.576-1.091-2.545c0-0.97 0.364-1.818 1.091-2.545z">
            </path>
        </symbol>

        <symbol id="icon-emblem" viewBox="0 0 20 32">
            <path fill="#fff" style="fill: var(--color1, #fff)"
                d="M9.005 30.888c-1.738-1.262-2.991-3.156-3.414-5.351h-5.591v-23.117c2.991 1.443 5.153 4.599 5.388 7.876l0.846 6.493-0.407-0.045c-0.893 0-1.676 0.812-1.676 1.608 0 0.752 0.595 1.383 1.378 1.548l1.018 0.226c1.676-3.051 2.631-6.042 2.631-8.973 0-2.645-0.36-5.291-0.423-7.996 0-1.202 0.486-2.3 1.253-3.156 0.783 0.857 1.253 1.954 1.253 3.156 0 2.705-0.423 5.351-0.423 7.996 0 2.931 0.955 5.922 2.631 8.973l1.018-0.226c0.783-0.165 1.378-0.812 1.378-1.548 0-0.812-0.783-1.608-1.676-1.608l-0.423 0.060 0.846-6.493c0.423-3.277 2.396-6.448 5.388-7.876v23.117h-5.576c-0.423 2.179-1.613 4.148-3.414 5.351-0.423 0.286-0.783 0.631-1.018 1.097-0.219-0.466-0.579-0.812-0.987-1.112zM2.647 17.556c0.235-0.857 0.893-1.608 1.738-2.074l-0.658-5.351c-0.235-1.668-0.955-3.156-2.036-4.374v11.784h0.955v0.015zM5.466 23.929c0-0.812 0.125-1.548 0.298-2.3l-0.783-0.18c-1.143-0.346-2.036-1.203-2.334-2.3h-0.955v4.78h3.774zM9.178 23.929c0-0.977-0.783-1.834-1.801-1.954-0.172 0.631-0.298 1.263-0.298 1.954h2.099zM9.178 25.552h-1.864c0.298 1.263 0.955 2.42 1.864 3.397v-3.397zM11.809 20.547c-0.72-1.262-1.378-2.585-1.801-3.968-0.423 1.383-1.081 2.706-1.801 3.968 0.72 0.165 1.316 0.631 1.801 1.157 0.486-0.526 1.081-0.992 1.801-1.157zM12.952 23.929c0-0.691-0.125-1.323-0.297-1.954-1.018 0.12-1.801 0.977-1.801 1.954h2.099zM12.717 25.552h-1.864v3.397c0.908-0.992 1.566-2.134 1.864-3.397zM18.34 23.929v-4.78h-0.955c-0.298 1.097-1.206 1.954-2.334 2.3l-0.783 0.18c0.172 0.752 0.298 1.488 0.298 2.3h3.774zM18.34 17.556v-11.799c-1.081 1.202-1.864 2.706-2.036 4.374l-0.658 5.351c0.846 0.466 1.504 1.203 1.739 2.074h0.955z">
            </path>
        </symbol>

        <symbol id="icon-trash" viewBox="0 0 32 32">
            <path fill="none" stroke="#fff" style="stroke: var(--color1, #fff)" stroke-linejoin="round"
                stroke-linecap="round" stroke-miterlimit="4" stroke-width="2.9091"
                d="M12 4h8M4 8h24M25.333 8l-0.935 14.026c-0.14 2.104-0.21 3.157-0.665 3.954-0.4 0.702-1.004 1.267-1.731 1.619-0.826 0.4-1.881 0.4-3.99 0.4h-4.025c-2.109 0-3.163 0-3.99-0.4-0.727-0.353-1.331-0.917-1.731-1.619-0.455-0.798-0.525-1.85-0.665-3.954l-0.935-14.026M13.333 14v6.667M18.667 14v6.667">
            </path>
        </symbol>

        <symbol id="icon-burger" viewBox="0 0 32 32">
            <path stroke-linejoin="round" stroke-linecap="round" stroke-miterlimit="4" stroke-width="2.2857"
                d="M22.667 13.333h-18.667"></path>
            <path stroke-linejoin="round" stroke-linecap="round" stroke-miterlimit="4" stroke-width="2.2857"
                d="M28 8h-24"></path>
            <path stroke-linejoin="round" stroke-linecap="round" stroke-miterlimit="4" stroke-width="2.2857"
                d="M28 18.667h-24"></path>
            <path stroke-linejoin="round" stroke-linecap="round" stroke-miterlimit="4" stroke-width="2.2857"
                d="M22.667 24h-18.667"></path>
        </symbol>

        <symbol id="icon-lock" viewBox="0 0 32 32">
            <path stroke-linejoin="round" stroke-linecap="round" stroke-miterlimit="4" stroke-width="2.2857"
                d="M22.667 14.667v-4c0-3.682-2.985-6.667-6.667-6.667s-6.667 2.985-6.667 6.667v4M10.4 28h11.2c2.24 0 3.36 0 4.216-0.436 0.753-0.383 1.365-0.995 1.748-1.748 0.436-0.856 0.436-1.976 0.436-4.216v-0.533c0-2.24 0-3.36-0.436-4.216-0.383-0.753-0.995-1.365-1.748-1.748-0.856-0.436-1.976-0.436-4.216-0.436h-11.2c-2.24 0-3.36 0-4.216 0.436-0.753 0.384-1.365 0.995-1.748 1.748-0.436 0.856-0.436 1.976-0.436 4.216v0.533c0 2.24 0 3.36 0.436 4.216 0.383 0.753 0.995 1.365 1.748 1.748 0.856 0.436 1.976 0.436 4.216 0.436z">
            </path>
        </symbol>

        <symbol id="icon-mail" viewBox="0 0 32 32">
            <path stroke-linejoin="round" stroke-linecap="round" stroke-miterlimit="4" stroke-width="2.2857"
                d="M28.666 24l-8.857-8M12.19 16l-8.857 8M2.667 9.333l10.887 7.621c0.882 0.617 1.322 0.926 1.802 1.045 0.423 0.106 0.866 0.106 1.29 0 0.479-0.12 0.92-0.428 1.802-1.045l10.887-7.621M9.067 26.667h13.867c2.24 0 3.36 0 4.216-0.436 0.753-0.384 1.365-0.995 1.748-1.748 0.436-0.856 0.436-1.976 0.436-4.216v-8.533c0-2.24 0-3.36-0.436-4.216-0.383-0.753-0.995-1.365-1.748-1.748-0.856-0.436-1.976-0.436-4.216-0.436h-13.867c-2.24 0-3.36 0-4.216 0.436-0.753 0.383-1.365 0.995-1.748 1.748-0.436 0.856-0.436 1.976-0.436 4.216v8.533c0 2.24 0 3.36 0.436 4.216 0.384 0.753 0.995 1.365 1.748 1.748 0.856 0.436 1.976 0.436 4.216 0.436z">
            </path>
        </symbol>

        <symbol id="icon-close" viewBox="0 0 32 32">
            <path stroke-linejoin="round" stroke-linecap="round" stroke-miterlimit="4" stroke-width="3.4286"
                d="M24 8l-16 16M8 8l16 16"></path>
            <path stroke-linejoin="round" stroke-linecap="round" stroke-miterlimit="4" stroke-width="3.4286"
                d="M24 8l-16 16M8 8l16 16"></path>
        </symbol>


        <symbol id="icon-logo" viewBox="0 0 126 32">
            <path fill="#f6f6f6" style="fill: var(--color3, #f6f6f6)"
                d="M0 2.286l14.008 13.861 13.42 13.567v-27.429h-27.429z"></path>
            <path fill="#f6f6f6" style="fill: var(--color3, #f6f6f6)"
                d="M3.82 5.91l10.237 10.139 9.649 9.845h-19.886v-19.984z"></path>
            <path fill="#4f2ee8" style="fill: var(--color2, #4f2ee8)"
                d="M23.771 25.959l-10.237-10.139-9.649-9.845h19.886v19.984z"></path>
            <path fill="#4f2ee8" style="fill: var(--color2, #4f2ee8)" d="M7.935 10.024l11.657 11.657h-11.657v-11.657z">
            </path>
            <path fill="#f6f6f6" style="fill: var(--color3, #f6f6f6)" d="M7.935 10.024l11.657 11.657v-11.657h-11.657z">
            </path>
            <path 
                d="M47.659 12.266c0-2.366-1.749-3.703-4.773-3.703h-6.315v14.709h6.665c3.045 0 4.999-1.461 4.999-4.299 0-2.201-1.317-3.333-2.859-3.6v-0.041c1.214-0.411 2.283-1.255 2.283-3.065zM39.019 14.653v-4.011h3.929c1.461 0 2.263 0.72 2.263 2.016s-0.658 1.995-2.407 1.995h-3.785zM39.019 16.483h4.299c1.543 0 2.469 0.843 2.469 2.345 0 1.378-0.638 2.366-2.736 2.366h-4.032v-4.711z">
            </path>
            <path 
                d="M54.516 23.581c-3.291 0-5.287-2.283-5.287-5.554s1.995-5.554 5.287-5.554c3.291 0 5.287 2.283 5.287 5.554s-1.995 5.554-5.287 5.554zM54.516 21.811c2.057 0 3.127-1.625 3.127-3.785 0-2.181-1.070-3.785-3.127-3.785s-3.127 1.605-3.127 3.785c0 2.16 1.070 3.785 3.127 3.785z">
            </path>
            <path 
                d="M66.027 23.581c-3.291 0-5.287-2.283-5.287-5.554s1.995-5.554 5.287-5.554c3.291 0 5.287 2.283 5.287 5.554s-1.995 5.554-5.287 5.554zM66.027 21.811c2.057 0 3.127-1.625 3.127-3.785 0-2.181-1.070-3.785-3.127-3.785s-3.127 1.605-3.127 3.785c0 2.16 1.070 3.785 3.127 3.785z">
            </path>
            <path 
                d="M72.807 8.563v14.709h2.16v-3.806l1.461-1.378 3.312 5.184h2.592l-4.423-6.603 3.991-3.909h-2.654l-4.279 4.217v-8.414h-2.16z">
            </path>
            <path 
                d="M87.539 16.915c-1.522-0.35-2.695-0.432-2.695-1.502 0-0.741 0.699-1.234 1.995-1.234 1.687 0 2.098 0.843 2.242 1.666h2.098c-0.144-1.831-1.502-3.374-4.361-3.374-2.633 0-4.155 1.378-4.155 3.106 0 2.386 2.263 2.715 3.929 3.106 1.543 0.37 2.798 0.473 2.798 1.79 0 0.658-0.638 1.399-2.139 1.399-2.222 0-2.715-0.967-2.818-2.098h-2.098c0.103 2.222 1.563 3.806 4.958 3.806 2.551 0 4.279-1.255 4.279-3.271 0-2.51-2.098-2.942-4.032-3.394z">
            </path>
            <path
                d="M98.633 12.472c-1.769 0-2.859 0.823-3.415 1.646h-0.041v-5.554h-2.16v14.709h2.16v-6.398c0-1.563 1.131-2.571 2.715-2.571 1.502 0 2.098 0.905 2.098 2.325v6.645h2.181v-7.262c0-2.407-1.543-3.538-3.538-3.538z">
            </path>
            <path 
                d="M108.796 21.811c-1.913 0-3.045-1.461-3.045-3.23h8.064c0-3.744-1.666-6.11-5.061-6.11-3.168 0-5.163 2.139-5.163 5.554 0 3.291 1.995 5.554 5.266 5.554 2.695 0 4.258-1.522 4.793-3.518h-2.16c-0.185 0.638-0.905 1.749-2.695 1.749zM108.754 14.179c1.749 0 2.901 1.173 2.901 2.798h-5.904c0-1.625 1.255-2.798 3.003-2.798z">
            </path>
            <path  d="M115.337 8.563v14.709h2.181v-14.709h-2.181z"></path>
            <path 
                d="M124.573 10.333v-1.769c-0.432-0.082-0.905-0.144-1.44-0.144-1.728 0-2.674 0.782-2.674 3.003v1.337h-1.502v1.769h1.502v8.743h2.181v-8.743h1.934v-1.769h-1.934v-1.152c0-1.193 0.535-1.337 1.934-1.275z">
            </path>
        </symbol>








        <symbol id="icon-icon-shopper" viewBox="0 0 32 32">
            <path
                d="M25.333 9.333h-4v-1.333c0-1.415-0.562-2.771-1.562-3.771s-2.357-1.562-3.771-1.562c-1.414 0-2.771 0.562-3.771 1.562s-1.562 2.357-1.562 3.771v1.333h-4c-0.354 0-0.693 0.14-0.943 0.391s-0.391 0.589-0.391 0.943v14.667c0 1.061 0.421 2.078 1.172 2.828s1.768 1.172 2.828 1.172h13.333c1.061 0 2.078-0.421 2.828-1.172s1.172-1.768 1.172-2.828v-14.667c0-0.354-0.14-0.693-0.391-0.943s-0.589-0.391-0.943-0.391zM13.333 8c0-0.707 0.281-1.386 0.781-1.886s1.178-0.781 1.886-0.781c0.707 0 1.385 0.281 1.886 0.781s0.781 1.178 0.781 1.886v1.333h-5.333v-1.333zM24 25.333c0 0.354-0.14 0.693-0.391 0.943s-0.589 0.391-0.943 0.391h-13.333c-0.354 0-0.693-0.14-0.943-0.391s-0.391-0.589-0.391-0.943v-13.333h2.667v1.333c0 0.354 0.14 0.693 0.391 0.943s0.589 0.391 0.943 0.391c0.354 0 0.693-0.14 0.943-0.391s0.391-0.589 0.391-0.943v-1.333h5.333v1.333c0 0.354 0.14 0.693 0.39 0.943s0.589 0.391 0.943 0.391 0.693-0.14 0.943-0.391c0.25-0.25 0.391-0.589 0.391-0.943v-1.333h2.667v13.333z">
            </path>
        </symbol>

        <symbol id="icon-login" viewBox="0 0 32 32">
            <path  stroke-linejoin="round"
                stroke-linecap="round" stroke-miterlimit="4" stroke-width="3.2"
                d="M5.333 16h21.333M26.667 16l-8-8M26.667 16l-8 8"></path>
        </symbol>

        <symbol id="icon-down" viewBox="0 0 32 32">
            <path fill="#4f2ee8" style="fill: var(--color2, #4f2ee8)"
                d="M15.053 17.867c0.124 0.125 0.271 0.224 0.434 0.292s0.337 0.103 0.513 0.103c0.176 0 0.35-0.035 0.513-0.103s0.31-0.167 0.434-0.292l6.107-6.12c0.124-0.125 0.271-0.224 0.434-0.292s0.337-0.103 0.513-0.103c0.176 0 0.35 0.035 0.513 0.103s0.31 0.167 0.434 0.292c0.248 0.25 0.388 0.588 0.388 0.94s-0.139 0.69-0.388 0.94l-6.12 6.12c-0.75 0.749-1.767 1.17-2.827 1.17s-2.077-0.421-2.827-1.17l-6.12-6.12c-0.246-0.248-0.385-0.584-0.387-0.933-0.001-0.175 0.033-0.349 0.099-0.512s0.164-0.31 0.288-0.435c0.124-0.125 0.271-0.224 0.434-0.292s0.337-0.103 0.513-0.103c0.176 0 0.35 0.035 0.513 0.103s0.31 0.167 0.434 0.292l6.107 6.12z">
            </path>
        </symbol>

        <symbol id="icon-login-down" viewBox="0 0 28 32">
            <path fill="#fff" style="fill: var(--color1, #fff)"
                d="M5.898 12h16.513l-7.423 8.391c-0.221 0.25-0.521 0.39-0.834 0.39s-0.613-0.14-0.834-0.39l-7.423-8.391z">
            </path>
        </symbol>

        <symbol id="icon-user">
            <path fill="#4F2EE8"
                d="M3.167 17.417a6.333 6.333 0 1 1 12.666 0H3.167ZM9.5 10.292a4.749 4.749 0 0 1-4.75-4.75A4.749 4.749 0 0 1 9.5.792a4.749 4.749 0 0 1 4.75 4.75 4.749 4.749 0 0 1-4.75 4.75Z" />
        </symbol>

    </defs>
</svg>