<svg width="14" height="8" viewBox="0 0 14 8" fill="none" xmlns="http://www.w3.org/2000/svg">
<path d="M6.34915 5.28346C6.43436 5.36937 6.53575 5.43757 6.64745 5.48411C6.75915 5.53065 6.87897 5.5546 6.99998 5.5546C7.12099 5.5546 7.2408 5.53065 7.35251 5.48411C7.46421 5.43757 7.5656 5.36937 7.65081 5.28346L11.8492 1.07596C11.9344 0.990038 12.0358 0.921843 12.1475 0.875305C12.2592 0.828767 12.379 0.804808 12.5 0.804808C12.621 0.804808 12.7408 0.828767 12.8525 0.875305C12.9642 0.921843 13.0656 0.990038 13.1508 1.07596C13.3216 1.24771 13.4174 1.48004 13.4174 1.72221C13.4174 1.96438 13.3216 2.19671 13.1508 2.36846L8.94332 6.57596C8.42769 7.09094 7.72873 7.3802 6.99998 7.3802C6.27123 7.3802 5.57227 7.09094 5.05664 6.57596L0.849139 2.36846C0.67979 2.19772 0.584317 1.96727 0.583305 1.72679C0.582607 1.60615 0.60573 1.48656 0.651347 1.37487C0.696965 1.26319 0.764181 1.16161 0.849139 1.07596C0.934355 0.990038 1.03574 0.921843 1.14744 0.875305C1.25915 0.828767 1.37896 0.804808 1.49997 0.804808C1.62098 0.804808 1.7408 0.828767 1.8525 0.875305C1.96421 0.921843 2.06559 0.990038 2.15081 1.07596L6.34915 5.28346Z" fill="#4F2EE8"/>
</svg>
